<svg width="43" height="40" viewBox="0 0 43 40" fill="none" xmlns="http://www.w3.org/2000/svg">
<path d="M1.65601 30.2498C1.6562 30.3738 1.50359 30.5931 1.44785 30.711C1.18953 31.258 1.02616 31.9151 1.13562 32.5198C1.23864 33.089 1.58537 33.5534 2.05925 33.8738C4.3895 35.449 9.76866 34.9963 12.4387 34.5566C13.4432 34.3912 14.4233 34.128 15.4205 33.9305C14.8209 34.1733 14.2276 34.4188 13.619 34.6395C11.2581 35.5166 8.37164 36.2055 5.85821 36.2995C4.28014 36.3585 1.89011 36.1998 0.689903 35.0745C0.24361 34.6561 0.013544 34.1372 0.000570368 33.5274C-0.025473 32.3054 0.84501 31.0895 1.65601 30.2498Z" fill="#F7921E"/>
<path d="M40.8556 18.0722C40.8721 18.0878 40.8757 18.0887 40.8863 18.1121C40.9581 18.2697 40.9657 19.0564 40.9741 19.2728C40.9798 19.4545 40.9831 19.6363 40.9839 19.8182C40.9846 20.0001 40.9828 20.182 40.9785 20.3638C40.9742 20.5456 40.9674 20.7273 40.9581 20.909C40.9488 21.0906 40.937 21.272 40.9227 21.4534C40.9083 21.6347 40.8915 21.8158 40.8722 21.9966C40.8529 22.1775 40.8311 22.3581 40.8068 22.5383C40.7824 22.7186 40.7556 22.8984 40.7263 23.0779C40.697 23.2574 40.6653 23.4364 40.631 23.6151C40.5968 23.7936 40.5601 23.9718 40.5209 24.1494C40.4817 24.327 40.44 24.504 40.396 24.6805C40.352 24.8569 40.3055 25.0327 40.2566 25.2079C40.2077 25.3831 40.1563 25.5575 40.1026 25.7312C40.0489 25.905 39.9928 26.078 39.9343 26.2502C39.8757 26.4224 39.8149 26.5937 39.7517 26.7642C39.6884 26.9347 39.6228 27.1043 39.5549 27.2731C39.4869 27.4418 39.4167 27.6095 39.3441 27.7763C39.2794 27.9286 39.2128 28.08 39.1444 28.2307C39.076 28.3814 39.0056 28.5312 38.9336 28.6801C38.8614 28.829 38.7875 28.977 38.7117 29.1241C38.6358 29.2712 38.5583 29.4173 38.4788 29.5625C38.3994 29.7077 38.3182 29.8518 38.2352 29.995C38.1523 30.1382 38.0675 30.2804 37.981 30.4213C37.8945 30.5624 37.8063 30.7024 37.7163 30.8412C37.6264 30.9801 37.5347 31.1179 37.4414 31.2544C37.348 31.3911 37.2529 31.5265 37.1563 31.6608C37.0596 31.795 36.9612 31.928 36.8612 32.0599C36.7613 32.1917 36.6596 32.3223 36.5564 32.4516C36.4532 32.5809 36.3483 32.7089 36.242 32.8357C36.1356 32.9624 36.0276 33.0879 35.9181 33.2118C35.8086 33.3359 35.6975 33.4585 35.585 33.5799C35.4725 33.7012 35.3585 33.8211 35.243 33.9396C35.1275 34.0581 35.0105 34.1751 34.8921 34.2907C34.7737 34.4064 34.6539 34.5204 34.5327 34.6331C34.4115 34.7457 34.2889 34.8568 34.1649 34.9664C34.041 35.0761 33.9156 35.1841 33.789 35.2906C33.6624 35.3971 33.5344 35.502 33.4053 35.6053C33.2761 35.7086 33.1455 35.8104 33.0138 35.9105C32.8821 36.0107 32.7491 36.1091 32.6149 36.2059C32.4808 36.3028 32.3454 36.398 32.2088 36.4914C32.0722 36.5849 31.9345 36.6766 31.7958 36.7667C31.6569 36.8567 31.5171 36.9452 31.3761 37.0317C31.2351 37.1183 31.0931 37.2033 30.95 37.2863C30.8069 37.3694 30.6627 37.4507 30.5177 37.5303C30.3726 37.6098 30.2265 37.6875 30.0796 37.7635C29.9325 37.8394 29.7846 37.9135 29.6358 37.9857C29.4869 38.058 29.3372 38.1284 29.1866 38.197C29.036 38.2655 28.8846 38.3322 28.7323 38.397C28.5801 38.4618 28.427 38.5248 28.2733 38.5858C28.1484 38.6355 28.0231 38.6839 27.8973 38.731C27.7715 38.7782 27.6452 38.824 27.5185 38.8686C27.3917 38.9132 27.2646 38.9565 27.137 38.9985C27.0093 39.0405 26.8813 39.0813 26.7529 39.1208C26.6244 39.1602 26.4956 39.1983 26.3663 39.2352C26.2371 39.2721 26.1075 39.3076 25.9776 39.3418C25.8477 39.376 25.7175 39.4089 25.5868 39.4405C25.4562 39.4721 25.3253 39.5024 25.1941 39.5313C25.0628 39.5603 24.9314 39.5879 24.7996 39.6142C24.6679 39.6404 24.5358 39.6654 24.4036 39.689C24.2713 39.7127 24.1388 39.735 24.006 39.7559C23.8733 39.7769 23.7404 39.7965 23.6073 39.8147C23.4742 39.833 23.3409 39.8499 23.2074 39.8655C23.0739 39.881 22.9403 39.8953 22.8067 39.9081C22.6729 39.921 22.539 39.9326 22.4051 39.9427C22.2711 39.9529 22.1369 39.9617 22.0028 39.9692C21.8686 39.9767 21.7344 39.9827 21.6001 39.9875C21.4659 39.9923 21.3315 39.9957 21.1972 39.9977C21.0628 39.9997 20.9285 40.0004 20.7941 39.9997C20.6598 39.999 20.5254 39.9969 20.3911 39.9936C20.2567 39.9902 20.1225 39.9854 19.9883 39.9794C19.8541 39.9732 19.7199 39.9658 19.5858 39.957C19.4518 39.9481 19.3177 39.9379 19.1839 39.9264C19.0501 39.9149 18.9163 39.902 18.7827 39.8878C18.6491 39.8735 18.5157 39.858 18.3824 39.841C18.2491 39.8241 18.116 39.8058 17.983 39.7862C17.8501 39.7666 17.7173 39.7456 17.5848 39.7233C17.4523 39.701 17.3201 39.6774 17.188 39.6524C17.056 39.6274 16.9242 39.6011 16.7928 39.5735C16.6613 39.5458 16.53 39.5169 16.3991 39.4866C16.2682 39.4564 16.1376 39.4248 16.0073 39.3918C15.877 39.3589 15.7471 39.3247 15.6175 39.2892C14.5285 38.9906 13.4968 38.591 12.4594 38.1483C11.7787 37.8393 11.1168 37.4928 10.447 37.1615C10.9792 37.0607 11.5092 36.9493 12.037 36.8272C12.5648 36.7052 13.0899 36.5726 13.6123 36.4295C14.1348 36.2864 14.6541 36.1327 15.1704 35.9688C15.6866 35.8048 16.1994 35.6305 16.7088 35.4459C17.2944 35.24 17.8758 35.023 18.4531 34.7948C19.0304 34.5666 19.603 34.3273 20.1711 34.077C20.7391 33.8267 21.3021 33.5656 21.8602 33.2936C22.4182 33.0216 22.9707 32.739 23.5178 32.4457C24.4033 31.9683 25.2589 31.443 26.1126 30.9118C27.2806 30.1852 28.4169 29.4408 29.539 28.6444C30.7706 27.7734 31.9709 26.8612 33.1401 25.9079C34.2491 24.9851 35.2979 24.0041 36.3368 23.0043C37.5215 21.8739 38.649 20.6892 39.7191 19.4499C40.1053 19.0007 40.5075 18.5515 40.8556 18.0722Z" fill="#F7921E"/>
<path d="M24.0756 15.2087C24.1835 15.2911 24.2796 15.4273 24.3726 15.5294C24.605 15.7844 24.8352 16.0426 25.0785 16.2873C26.7711 17.9904 28.3947 19.77 30.0367 21.5223C30.4078 21.2905 30.7547 21.02 31.1279 20.7901C32.8036 19.7577 34.5381 18.7614 36.3206 17.9252C36.9367 17.6361 37.5658 17.3838 38.1942 17.1234C39.5065 16.5799 40.8639 16.0805 42.2604 15.8015C38.5359 17.5311 35.1625 19.9016 31.7231 22.1219C30.9885 22.5962 30.2418 23.0508 29.5034 23.5187C28.1229 24.4103 26.7176 25.2609 25.2873 26.0702C24.2806 26.6359 23.2599 27.1752 22.2251 27.688C21.1905 28.2009 20.1432 28.6867 19.0834 29.1453C17.7013 29.7608 16.2936 30.3107 14.8603 30.795C14.0368 31.0698 13.1907 31.3037 12.3534 31.5336C11.2595 31.8386 10.1579 32.1123 9.04845 32.3547C7.93906 32.597 6.82362 32.8077 5.70222 32.9866C5.25323 32.3717 4.78147 31.7768 4.35133 31.1472C3.79529 30.3333 3.29335 29.4435 2.87406 28.553C2.54876 27.8546 2.16532 27.0467 1.97437 26.3052C3.00611 25.8104 4.06274 25.3636 5.10284 24.8862C6.14246 24.4089 7.16978 23.8994 8.20113 23.4043C8.10455 23.8639 7.96472 24.3133 7.85171 24.7688L7.17304 27.5485C7.03668 28.0988 6.85389 28.673 6.78239 29.2348C7.48383 28.0632 8.37325 27.0187 9.2272 25.9575C9.86108 25.1699 10.4663 24.3605 11.1278 23.5951C12.2009 24.6707 13.2253 25.8244 14.2083 26.9824C13.8967 25.0335 13.6169 23.0828 13.2501 21.1423C13.0868 20.2781 12.7527 19.3259 12.653 18.4798C13.5751 19.4829 14.5953 20.3895 15.5402 21.3695C16.2115 22.0659 16.8989 22.7473 17.5659 23.4477C18.1577 24.0692 18.7386 24.7357 19.3867 25.2979C19.1178 24.9021 18.8138 24.5247 18.5279 24.1407C18.0293 23.471 17.5307 22.7801 17.0754 22.0805C17.632 21.6898 18.2662 21.3779 18.8551 21.0376C19.4035 20.7207 19.9348 20.3645 20.4972 20.0731C20.7799 21.4971 21.136 22.9039 21.4001 24.3322C21.6311 23.6888 21.7962 23.0225 21.9893 22.3673C22.4332 20.8609 22.8535 19.3411 23.3262 17.8441C23.6589 18.5014 24.0162 19.1445 24.3337 19.8098C24.3401 19.4896 24.295 19.1585 24.2788 18.8377C24.2183 17.6316 24.0873 16.4153 24.0756 15.2087Z" fill="#F7921E"/>
<path d="M39.3731 12.1113C38.2324 9.51172 36.8087 7.49869 34.7598 5.54583C33.8497 4.67842 32.8776 3.88559 31.8102 3.21836C31.6214 3.09794 31.4305 2.9806 31.2378 2.86643C31.0451 2.75227 30.8505 2.64137 30.6541 2.53364C30.4577 2.42581 30.2596 2.32135 30.0597 2.22006C29.8599 2.11886 29.6585 2.02094 29.4555 1.92628C29.2524 1.83162 29.0479 1.74032 28.8418 1.65249C28.6358 1.56455 28.4284 1.47999 28.2196 1.39897C28.0108 1.31786 27.8007 1.24021 27.5893 1.16602C27.3779 1.09174 27.1654 1.0211 26.9517 0.953833C26.738 0.886658 26.5233 0.822943 26.3075 0.762784C26.0917 0.702625 25.875 0.646021 25.6574 0.592974C25.4398 0.539926 25.2212 0.49053 25.002 0.44469C24.7827 0.398754 24.5628 0.356565 24.3421 0.317933C24.1215 0.2793 23.9002 0.244223 23.6784 0.212894C23.4566 0.181469 23.2344 0.153792 23.0117 0.129671C22.7889 0.105646 22.566 0.0852722 22.3425 0.0685506C22.1191 0.051733 21.8956 0.0386632 21.6718 0.0293414C21.142 0.0116589 20.5788 -0.0250517 20.0526 0.0261701C19.8867 0.0340504 19.721 0.0439488 19.5553 0.0558653C19.3897 0.0677818 19.2244 0.0818126 19.0591 0.0978614C18.8939 0.11391 18.7288 0.131977 18.5639 0.152158C18.3992 0.172244 18.2347 0.194443 18.0704 0.218564C17.9061 0.242782 17.7422 0.269113 17.5786 0.297367C17.415 0.325621 17.2518 0.355893 17.0889 0.388182C16.926 0.420472 16.7636 0.45478 16.6016 0.491107C16.4395 0.527433 16.278 0.565681 16.1169 0.606043C15.956 0.646406 15.7954 0.68869 15.6354 0.732993C15.4754 0.777295 15.3159 0.82352 15.1571 0.871763C14.9981 0.920005 14.8399 0.97017 14.6822 1.02235C14.5246 1.07454 14.3677 1.12854 14.2114 1.18467C14.0551 1.24069 13.8995 1.29864 13.7447 1.35851C13.5899 1.41838 13.4358 1.48018 13.2824 1.54389C13.1291 1.60761 12.9765 1.67315 12.8249 1.74071C12.6732 1.80817 12.5224 1.87756 12.3724 1.94877C12.2223 2.01998 12.0733 2.09301 11.9251 2.16788C11.7769 2.24274 11.6297 2.31952 11.4834 2.39804C11.3372 2.47655 11.1918 2.55689 11.0475 2.63906C10.9033 2.72123 10.76 2.80512 10.6178 2.89084C10.4756 2.97647 10.3344 3.06392 10.1944 3.1531C10.0544 3.24229 9.91544 3.3332 9.77763 3.42574C9.63982 3.51838 9.50316 3.61275 9.36776 3.70866C9.23226 3.80476 9.098 3.9024 8.965 4.00167C8.8319 4.10104 8.70014 4.20195 8.56954 4.30459C8.43904 4.40712 8.30978 4.5113 8.18178 4.61711C8.05387 4.72291 7.9272 4.83026 7.80189 4.93914C7.67648 5.04802 7.5526 5.15854 7.42998 5.2705C7.30745 5.38245 7.18627 5.49595 7.06652 5.61098C6.94669 5.72592 6.82839 5.84239 6.71143 5.96031C6.59457 6.07822 6.47916 6.19758 6.36518 6.31828C6.2513 6.43908 6.13886 6.56123 6.02796 6.68481C5.04879 7.77719 4.22578 8.93098 3.49311 10.202C3.31868 10.5045 3.12619 10.8086 2.97829 11.1248L3.01068 11.1034C3.30254 10.9087 3.5671 10.6699 3.84522 10.4559C4.12526 10.2405 4.42778 10.0443 4.72733 9.85701C7.21923 8.29854 9.98165 7.7375 12.8755 8.29652C14.3376 8.57887 16.3528 9.41869 17.4228 10.4672C14.7008 9.44599 11.64 9.75697 9.02727 10.9424C8.71187 11.0855 8.3858 11.2321 8.09067 11.414C9.23072 11.7631 10.3563 12.1115 11.2784 12.9108C10.6262 12.6617 9.92034 12.5422 9.2288 12.4631C6.92996 12.2 4.61566 12.5005 2.49827 13.4457C2.30251 13.5331 2.09743 13.6189 1.92128 13.7416C1.77155 14.1589 1.6644 14.5934 1.55206 15.0221C1.50266 15.2134 1.45605 15.4055 1.41233 15.5983C1.3686 15.7911 1.32786 15.9845 1.2899 16.1785C1.25203 16.3726 1.21705 16.5671 1.18495 16.7621C1.15286 16.9571 1.12364 17.1526 1.09741 17.3486C1.07117 17.5445 1.04782 17.7407 1.02744 17.9374C1.00697 18.134 0.98958 18.3309 0.975069 18.5281C0.960558 18.7252 0.949025 18.9225 0.940376 19.12C0.931823 19.3175 0.926153 19.5151 0.923463 19.7127C0.920772 19.9104 0.92106 20.108 0.924231 20.3057C0.927403 20.5034 0.933553 20.7009 0.942683 20.8983C0.951812 21.0958 0.963825 21.2931 0.978913 21.4902C0.993905 21.6873 1.01188 21.8841 1.03273 22.0808C1.05368 22.2773 1.07751 22.4735 1.10423 22.6694C1.13104 22.8652 1.16064 23.0607 1.19331 23.2556C1.22589 23.4506 1.26145 23.6451 1.29979 23.8389C1.33823 24.0329 1.37956 24.2261 1.42376 24.4188C1.56561 25.0416 1.71072 25.6764 1.9503 26.2706C2.3495 25.8316 2.8056 25.443 3.23498 25.0338L5.49864 22.8517C6.47589 21.8781 7.48264 20.9372 8.4695 19.9738L9.62041 18.8589C10.0439 18.4414 10.473 17.9549 10.9896 17.6509C11.2629 17.49 11.6873 17.3965 12.0065 17.3956C12.8423 17.393 13.5198 17.9088 14.0815 18.4752C14.733 19.1321 15.2013 19.899 15.7709 20.6191C16.5193 19.9437 17.2035 19.1884 17.8952 18.4558L19.9044 16.3627C20.5557 15.6815 21.1765 14.903 21.9772 14.3918C22.4133 14.1135 22.9983 13.9388 23.5178 13.9624C24.0469 13.9866 24.5961 14.1843 25.0328 14.4813C25.6305 14.8878 26.3559 15.7523 26.8956 16.2856C27.6198 17.0013 28.3248 17.7329 29.0439 18.4531C29.4812 18.8909 29.9489 19.3125 30.3625 19.7722C30.3792 19.7911 30.3957 19.8102 30.4118 19.8295C31.3282 19.0987 32.3779 18.4726 33.3937 17.8913C34.2704 17.3896 35.1568 16.8793 36.0721 16.4504C36.6575 16.176 37.2602 15.9453 37.862 15.7102C38.6681 15.3953 39.5006 15.1041 40.3471 14.9194C40.1239 13.9533 39.7707 13.0178 39.3731 12.1113ZM13.9228 6.71249C12.7555 6.94938 11.5703 7.25863 10.5012 7.79478C11.8009 6.42861 13.5078 5.68825 15.3777 5.59282C16.809 5.55111 18.3502 5.97626 19.5096 6.83118C17.8146 6.31406 15.6679 6.40554 13.9228 6.71249ZM34.2604 13.8637C34.2506 13.9759 34.217 14.1078 34.124 14.1806C34.0484 14.2398 33.9379 14.2757 33.8422 14.2638C33.7308 14.2501 33.6378 14.1782 33.5614 14.1004C33.2222 13.7553 32.9391 13.3337 32.6235 12.9647L29.5019 9.25676C29.0784 9.82722 28.4464 10.538 27.9308 11.0301C28.2586 11.9372 28.5057 12.8488 28.7549 13.7795C28.3229 13.3363 27.9168 12.8257 27.5357 12.3387C27.4128 12.1816 27.3054 11.9555 27.1682 11.8218C26.9811 12.1852 26.6993 12.4931 26.4161 12.7842C26.4683 12.4948 26.5601 11.7792 26.7117 11.5478C26.7166 11.5405 26.722 11.5334 26.727 11.5263C26.6751 11.4896 24.4931 11.3896 24.2101 11.3766C24.5089 11.2199 24.816 11.0601 25.138 10.9575C25.4295 10.8645 25.7374 10.8124 26.0337 10.734C26.3672 10.6457 26.6941 10.5486 27.0334 10.483C27.4364 9.80685 27.7732 9.06898 28.1097 8.35716C27.6784 8.25837 27.2406 8.18332 26.8072 8.09413L22.7888 7.28852C22.4603 7.22192 21.644 7.12649 21.3796 7.00224C21.3167 6.97273 21.2804 6.93939 21.26 6.87077C21.241 6.80773 21.2649 6.74171 21.3003 6.69096C21.3348 6.66742 21.3648 6.64772 21.4061 6.6383C21.7892 6.55123 22.2164 6.5373 22.6072 6.48483C23.4091 6.37729 24.2085 6.25188 25.0119 6.15568C25.5024 5.78675 26.0134 5.49508 26.5494 5.19813C26.6404 5.46635 26.701 5.74331 26.7596 6.01999C27.1338 5.94368 27.5342 5.92369 27.9147 5.88881C28.5137 5.83403 29.1177 5.77752 29.7188 5.7536C30.1461 4.9869 30.8728 4.0281 31.6589 3.61141C31.8016 3.59651 31.9401 3.58181 32.0656 3.66619C32.1519 3.72433 32.2 3.81601 32.2172 3.91711C32.3342 4.60288 31.6077 5.80126 31.2178 6.3697C31.5134 7.04423 31.828 7.73558 32.1639 8.39041C32.347 8.26308 32.5278 8.13719 32.723 8.02879C32.7979 8.40156 32.8396 8.81758 32.8502 9.19709C32.8574 9.45848 32.8171 9.75601 32.8815 10.0098C32.9428 10.2516 33.0653 10.4941 33.16 10.7251C33.4002 11.3105 34.3071 13.3295 34.2604 13.8637Z" fill="#F7921E"/>
</svg>
